PathFileType  4	(X/Y/Z) C:\Users\antoi\Documents\MyRepositories\mobilecap\ResultsAnalysis
DataRate	CameraRate	NumFrames	NumMarkers	Units	OrigDataRate	OrigDataStartFrame	OrigNumFrames
100.0	100.0	5	51	mm	100.0	64	170
Frame#	Time	r_knee			r_shank_antsup			r_ankle			r_calc			r_5meta			r_toe			L_knee			L_shank_antsup			L_ankle			L_calc			L_5meta			L_toe			r_sh2			r_sh3			r_sh4			L_sh2			L_sh3			r_thigh1			r_thigh2			r_thigh3			r_thigh4			r_thigh5			L_thigh1			L_thigh2			L_thigh3			L_thigh4			r.ASIS			r.PSIS			L.ASIS			L.PSIS			C7			R_Shoulder			L_Shoulder			R_Sternum			L_Sternum			R_humerus			R_elbow_med			R_elbow_lat			R_forearm			R_wrist_radius			R_wrist_ulna			L_humerus			L_elbow_med			L_elbow_lat			L_forearm			L_wrist_radius			L_wrist_ulna			R_HJC			L_HJC			R_HJC_reg			L_HJC_reg			
		X1	Y1	Z1	X2	Y2	Z2	X3	Y3	Z3	X4	Y4	Z4	X5	Y5	Z5	X6	Y6	Z6	X7	Y7	Z7	X8	Y8	Z8	X9	Y9	Z9	X10	Y10	Z10	X11	Y11	Z11	X12	Y12	Z12	X13	Y13	Z13	X14	Y14	Z14	X15	Y15	Z15	X16	Y16	Z16	X17	Y17	Z17	X18	Y18	Z18	X19	Y19	Z19	X20	Y20	Z20	X21	Y21	Z21	X22	Y22	Z22	X23	Y23	Z23	X24	Y24	Z24	X25	Y25	Z25	X26	Y26	Z26	X27	Y27	Z27	X28	Y28	Z28	X29	Y29	Z29	X30	Y30	Z30	X31	Y31	Z31	X32	Y32	Z32	X33	Y33	Z33	X34	Y34	Z34	X35	Y35	Z35	X36	Y36	Z36	X37	Y37	Z37	X38	Y38	Z38	X39	Y39	Z39	X40	Y40	Z40	X41	Y41	Z41	X42	Y42	Z42	X43	Y43	Z43	X44	Y44	Z44	X45	Y45	Z45	X46	Y46	Z46	X47	Y47	Z47	X48	Y48	Z48	X49	Y49	Z49	X50	Y50	Z50	X51	Y51	Z51	

64	0.63000000	314.62536	461.00956	-83.33782	314.88543	337.97107	-109.97694	171.47675	101.77783	-162.28005	122.93390	70.00482	-221.13244	271.69801	37.74825	-121.53703	315.34226	52.60688	-160.38142	618.01650	473.04645	-378.72636	695.42079	402.20257	-331.66099	747.14698	104.91742	-354.00956	717.17529	50.78965	-308.87995	883.14475	105.52185	-354.36829	898.91228	146.24692	-303.33694	278.34604	236.78841	-136.53174	257.91171	346.17574	-61.58941	205.45575	252.57095	-97.28982	643.58541	401.18431	-403.51745	683.65715	286.86512	-414.41747	492.18309	734.15114	-65.40305	469.14520	624.80226	-75.98328	413.48729	608.05941	-39.34324	387.83402	747.91767	-16.43322	363.90029	636.97238	-30.51274	557.23066	759.11963	-383.66836	620.46738	639.20696	-380.58917	460.84210	715.53208	-418.27456	526.71759	590.51738	-409.38292	529.23935	904.03870	-87.77433	349.06543	955.99256	-165.18170	539.58029	911.69091	-333.18754	350.01645	951.38965	-281.35007	420.01242	1403.94959	-170.90643	471.99773	1345.46109	-27.55012	476.50819	1386.42198	-336.05842	538.65312	1333.02616	-161.93774	539.22230	1336.11605	-207.05959	484.84749	1212.11800	23.64070	396.52078	1021.94254	-30.04728	430.97430	1023.36459	37.30799	490.46236	910.06418	41.18605	536.42971	817.19675	27.59763	503.59333	804.13749	45.65334	469.08189	1243.10914	-416.31579	377.22310	1061.03095	-371.07339	381.60779	1076.13545	-441.32079	423.33642	988.52187	-480.44819	457.31478	862.57427	-488.49727	429.93014	856.69501	-501.25490	438.36411	836.25112	-120.15959	451.85137	835.64548	-309.05556	455.76346	846.63458	-120.23047	457.08998	840.21291	-282.29300	
65	0.64000000	320.55382	460.87957	-82.38661	318.97181	337.59439	-108.85304	172.11922	103.30047	-161.41951	123.41770	72.15143	-220.32999	271.81891	37.62382	-121.10102	315.70230	52.25251	-159.89942	626.45599	471.27489	-378.24945	704.15949	400.32782	-331.92456	756.82570	103.05837	-352.54392	727.50865	49.04941	-306.89703	893.07582	104.26539	-353.50095	908.80460	145.49463	-302.88986	280.95980	236.98953	-135.42505	262.09263	346.77535	-60.63742	208.22109	253.96349	-96.44383	651.49840	398.56654	-403.14336	691.92682	284.36892	-413.66136	501.01051	732.20236	-64.16289	476.95149	623.10505	-74.58976	421.16105	607.05752	-38.36178	396.57424	747.03509	-15.19772	371.63969	636.35421	-29.57935	568.25698	758.08570	-382.74292	630.73883	637.81431	-379.41076	471.31506	715.07662	-417.97229	536.64826	589.61076	-408.91021	539.70821	902.26371	-86.72716	359.73000	954.51554	-164.43868	550.67804	910.60159	-332.24494	360.84437	949.90637	-280.56459	429.72372	1402.68195	-173.88262	482.57733	1345.89494	-30.26759	485.03767	1383.66808	-339.29313	548.54576	1332.26844	-164.98757	548.67424	1334.83177	-210.13107	495.71424	1212.81033	21.84537	407.05504	1022.34635	-30.47747	441.73786	1024.22794	36.76175	500.43467	910.58468	41.29931	545.62874	817.31151	28.32648	512.78050	804.61690	46.60693	477.52023	1239.54516	-418.04921	386.34063	1057.70080	-370.23122	390.01655	1072.33374	-440.70209	429.44576	984.28806	-480.24118	460.86239	857.75264	-488.56814	433.18698	852.12233	-500.79558	448.97277	834.56960	-119.50791	462.85368	834.40812	-308.37493	466.28834	845.29921	-119.29607	467.84429	838.86246	-281.45969	
66	0.65000000	326.69697	460.72689	-81.51504	323.27810	337.24575	-107.84420	172.94581	104.88097	-160.56645	123.99908	74.46173	-219.49635	271.88401	37.49879	-120.65063	316.07475	51.82210	-159.40809	635.33928	469.57321	-377.34364	712.83809	397.97325	-331.76491	764.71548	100.51048	-351.12840	735.59677	46.97474	-305.01251	901.06072	101.54105	-352.76347	917.17726	143.07902	-302.52629	283.76135	237.25405	-134.41288	266.53612	347.40351	-59.75518	211.16189	255.46469	-95.69545	659.43887	395.87107	-402.45060	699.57415	281.59084	-412.69998	509.99234	730.19402	-63.01254	484.90934	621.35926	-73.29711	428.99143	606.04694	-37.51441	405.42546	746.09451	-14.05191	379.51747	635.73541	-28.72339	579.40711	757.12203	-381.99776	641.24514	636.53290	-378.19826	481.91477	714.40552	-417.66914	546.81326	588.63577	-408.22728	550.40094	900.36385	-85.78659	370.70381	953.14013	-163.65247	562.00776	909.53406	-331.36144	371.95758	948.58223	-279.72717	439.54750	1401.37966	-176.96061	493.34047	1346.37900	-33.12197	493.63877	1380.92691	-342.58214	558.58673	1331.54568	-168.15613	558.18307	1333.57066	-213.31427	506.69803	1213.59122	19.99301	417.59790	1022.91487	-30.99201	452.43054	1025.19659	36.15860	510.33318	911.23580	41.38127	554.76340	817.56426	29.04800	521.89605	805.21443	47.50976	486.07975	1236.02521	-419.84728	395.58286	1054.47039	-369.35634	398.59496	1068.60182	-440.11367	435.75514	980.18976	-480.00047	464.62430	853.12562	-488.50665	436.63913	847.75412	-500.22584	459.77691	832.86644	-118.93841	474.00109	833.26397	-307.77829	476.99973	843.96272	-118.47562	478.75206	837.59165	-280.71854	
67	0.66000000	333.06315	460.54829	-80.74673	327.79833	336.93040	-106.95005	173.98628	106.54961	-159.72823	124.69952	76.94765	-218.65486	271.91024	37.37915	-120.20529	316.46849	51.31396	-158.91568	644.56531	467.82999	-376.08347	721.40485	395.20471	-331.15449	771.12499	97.47529	-349.75791	741.69079	44.84794	-303.27130	907.41974	97.45959	-351.98609	924.31509	139.05887	-302.03974	286.74427	237.59721	-133.49835	271.21801	348.09059	-58.96179	214.26644	257.09709	-95.06583	667.44886	393.12550	-401.48378	706.75219	278.59128	-411.52833	519.13941	728.11972	-61.93851	493.02632	619.57191	-72.12377	436.95979	605.02864	-36.80737	414.44121	745.08518	-13.04453	387.52221	635.07768	-27.96885	590.64355	756.12252	-381.40805	651.87785	635.21587	-376.99258	492.62728	713.50998	-417.31984	557.08426	587.52776	-407.33839	561.32184	898.32721	-84.90133	381.99483	951.84698	-162.82550	573.56203	908.42887	-330.52012	383.35854	947.40209	-278.84791	449.47416	1400.05941	-180.16339	504.29551	1346.90423	-36.11213	502.32950	1378.18326	-345.93218	568.75665	1330.86333	-171.44958	567.74651	1332.33133	-216.61721	517.80996	1214.45065	18.07611	428.13639	1023.64359	-31.56075	463.07034	1026.26549	35.51579	520.19171	912.00621	41.43328	563.85691	817.94379	29.75230	530.96881	805.92365	48.36451	494.74380	1232.53631	-421.72393	404.94134	1051.32987	-368.46053	407.30997	1064.94472	-439.56610	442.25710	976.21726	-479.72387	468.58594	848.66934	-488.33053	440.31907	843.62202	-499.52762	470.76243	831.13328	-118.42075	485.29061	832.16917	-307.23496	487.89966	842.57550	-117.72207	489.80757	836.35662	-280.04423	
68	0.67000000	339.65119	460.34836	-80.08814	332.50469	336.65949	-106.13748	175.23709	108.34967	-158.89373	125.53037	79.62467	-217.81020	271.93281	37.27039	-119.77792	316.90211	50.74289	-158.42080	653.95630	465.95247	-374.59316	729.78732	392.16604	-330.13830	776.43834	94.23854	-348.42911	746.16603	43.02767	-301.69282	912.53351	92.21915	-351.00031	930.57340	133.58934	-301.22520	289.88293	238.03526	-132.64913	276.08874	348.87706	-58.25059	217.51867	258.88349	-94.53961	675.50932	390.38061	-400.31192	713.60403	275.47458	-410.15419	528.45979	725.97232	-60.92426	501.31018	617.75142	-71.06792	445.05034	604.00201	-36.21754	423.67756	744.00414	-12.22069	395.63611	634.33064	-27.31115	601.93199	754.99337	-380.92163	662.51755	633.74185	-375.82451	503.42586	712.44851	-416.87568	567.33668	586.26877	-406.28403	572.48684	896.14936	-84.01736	393.59724	950.61202	-161.97201	585.31545	907.23080	-329.71178	395.03038	946.35176	-277.95301	459.49911	1398.74068	-183.50390	515.43803	1347.46750	-39.23161	511.13499	1375.42123	-349.35319	579.03441	1330.23361	-174.86940	577.38878	1331.12123	-220.04600	529.05786	1215.37575	16.08283	438.66073	1024.51612	-32.15605	473.68054	1027.43125	34.84465	530.04748	912.88087	41.45751	572.93131	818.43373	30.42790	540.03019	806.73366	49.17630	503.50414	1229.06112	-423.69072	414.43229	1048.25342	-367.57752	416.13566	1061.35727	-439.07262	448.93541	972.34966	-479.41269	472.73980	844.34890	-488.05758	444.24040	839.75062	-498.68964	481.91395	829.36630	-117.92987	496.71217	831.08011	-306.72012	498.99501	841.07898	-116.98648	501.00218	835.11254	-279.41530	
